<svg id="visual" viewBox="0 0 1900 875" width="1900" height="875" xmlns="http://www.w3.org/2000/svg" xmlns:xlink="http://www.w3.org/1999/xlink" version="1.1"><rect x="0" y="0" width="1900" height="875" fill="#F7FAFC"></rect><defs><linearGradient id="grad1_0" x1="53.9%" y1="100%" x2="100%" y2="0%"><stop offset="6.571428571428574%" stop-color="#1da1f2" stop-opacity="1"></stop><stop offset="93.42857142857143%" stop-color="#1da1f2" stop-opacity="1"></stop></linearGradient></defs><defs><linearGradient id="grad1_1" x1="53.9%" y1="100%" x2="100%" y2="0%"><stop offset="6.571428571428574%" stop-color="#1da1f2" stop-opacity="1"></stop><stop offset="93.42857142857143%" stop-color="#9ccff6" stop-opacity="1"></stop></linearGradient></defs><defs><linearGradient id="grad1_2" x1="53.9%" y1="100%" x2="100%" y2="0%"><stop offset="6.571428571428574%" stop-color="#f7fafc" stop-opacity="1"></stop><stop offset="93.42857142857143%" stop-color="#9ccff6" stop-opacity="1"></stop></linearGradient></defs><defs><linearGradient id="grad2_0" x1="0%" y1="100%" x2="46.1%" y2="0%"><stop offset="6.571428571428574%" stop-color="#1da1f2" stop-opacity="1"></stop><stop offset="93.42857142857143%" stop-color="#1da1f2" stop-opacity="1"></stop></linearGradient></defs><defs><linearGradient id="grad2_1" x1="0%" y1="100%" x2="46.1%" y2="0%"><stop offset="6.571428571428574%" stop-color="#9ccff6" stop-opacity="1"></stop><stop offset="93.42857142857143%" stop-color="#1da1f2" stop-opacity="1"></stop></linearGradient></defs><defs><linearGradient id="grad2_2" x1="0%" y1="100%" x2="46.1%" y2="0%"><stop offset="6.571428571428574%" stop-color="#9ccff6" stop-opacity="1"></stop><stop offset="93.42857142857143%" stop-color="#f7fafc" stop-opacity="1"></stop></linearGradient></defs><g transform="translate(1900, 875)"><path d="M-875 0C-869.2 -93.1 -863.4 -186.3 -832.2 -270.4C-801 -354.5 -744.4 -429.6 -681.2 -494.9C-618 -560.3 -548.3 -615.9 -473.8 -652.1C-399.2 -688.3 -319.9 -705.1 -240.1 -739C-160.3 -772.9 -80.2 -823.9 0 -875L0 0Z" fill="#c9e5f9"></path><path d="M-583.3 0C-579.5 -62.1 -575.6 -124.2 -554.8 -180.3C-534 -236.3 -496.2 -286.4 -454.1 -329.9C-412 -373.5 -365.5 -410.6 -315.8 -434.7C-266.1 -458.8 -213.2 -470 -160.1 -492.6C-106.9 -515.3 -53.4 -549.3 0 -583.3L0 0Z" fill="#6ab8f4"></path><path d="M-291.7 0C-289.7 -31 -287.8 -62.1 -277.4 -90.1C-267 -118.2 -248.1 -143.2 -227.1 -165C-206 -186.8 -182.8 -205.3 -157.9 -217.4C-133.1 -229.4 -106.6 -235 -80 -246.3C-53.4 -257.6 -26.7 -274.6 0 -291.7L0 0Z" fill="#1da1f2"></path></g><g transform="translate(0, 0)"><path d="M875 0C823 76.7 771 153.3 753.2 244.7C735.5 336.2 751.9 442.4 707.9 514.3C663.9 586.3 559.5 624 470.8 648C382.1 672.1 309.2 682.5 233.3 718C157.5 753.6 78.7 814.3 0 875L0 0Z" fill="#c9e5f9"></path><path d="M583.3 0C548.7 51.1 514 102.2 502.2 163.2C490.3 224.1 501.3 294.9 471.9 342.9C442.6 390.8 373 416 313.9 432C254.8 448.1 206.1 455 155.5 478.7C105 502.4 52.5 542.9 0 583.3L0 0Z" fill="#6ab8f4"></path><path d="M291.7 0C274.3 25.6 257 51.1 251.1 81.6C245.2 112.1 250.6 147.5 236 171.4C221.3 195.4 186.5 208 156.9 216C127.4 224 103.1 227.5 77.8 239.3C52.5 251.2 26.2 271.4 0 291.7L0 0Z" fill="#1da1f2"></path></g></svg>