<svg id="visual" viewBox="0 0 1900 875" width="1900" height="875" xmlns="http://www.w3.org/2000/svg" xmlns:xlink="http://www.w3.org/1999/xlink" version="1.1"><g fill="#1DA1F2"><circle r="106" cx="425" cy="93"></circle><circle r="27" cx="483" cy="393"></circle><circle r="102" cx="1722" cy="595"></circle><circle r="32" cx="1198" cy="753"></circle><circle r="85" cx="1670" cy="167"></circle><circle r="27" cx="1471" cy="566"></circle><circle r="104" cx="926" cy="522"></circle><circle r="83" cx="1406" cy="296"></circle><circle r="66" cx="57" cy="115"></circle><circle r="33" cx="110" cy="436"></circle><circle r="32" cx="490" cy="743"></circle><circle r="53" cx="715" cy="762"></circle><circle r="37" cx="881" cy="127"></circle><circle r="77" cx="1099" cy="215"></circle><circle r="103" cx="1782" cy="385"></circle><circle r="81" cx="160" cy="748"></circle><circle r="36" cx="1144" cy="506"></circle><circle r="74" cx="1854" cy="775"></circle><circle r="36" cx="939" cy="861"></circle><circle r="30" cx="628" cy="181"></circle></g></svg>