<svg id="visual" viewBox="0 0 1900 875" width="1900" height="875" xmlns="http://www.w3.org/2000/svg" xmlns:xlink="http://www.w3.org/1999/xlink" version="1.1"><path d="M0 584L45.2 582.7C90.3 581.3 180.7 578.7 271.2 590.2C361.7 601.7 452.3 627.3 542.8 631.3C633.3 635.3 723.7 617.7 814.2 602.5C904.7 587.3 995.3 574.7 1085.8 572.7C1176.3 570.7 1266.7 579.3 1357.2 588.2C1447.7 597 1538.3 606 1628.8 609.5C1719.3 613 1809.7 611 1854.8 610L1900 609L1900 876L1854.8 876C1809.7 876 1719.3 876 1628.8 876C1538.3 876 1447.7 876 1357.2 876C1266.7 876 1176.3 876 1085.8 876C995.3 876 904.7 876 814.2 876C723.7 876 633.3 876 542.8 876C452.3 876 361.7 876 271.2 876C180.7 876 90.3 876 45.2 876L0 876Z" fill="#1274b1"></path><path d="M0 683L45.2 683.2C90.3 683.3 180.7 683.7 271.2 681.8C361.7 680 452.3 676 542.8 673.2C633.3 670.3 723.7 668.7 814.2 660C904.7 651.3 995.3 635.7 1085.8 630.2C1176.3 624.7 1266.7 629.3 1357.2 638.7C1447.7 648 1538.3 662 1628.8 655C1719.3 648 1809.7 620 1854.8 606L1900 592L1900 876L1854.8 876C1809.7 876 1719.3 876 1628.8 876C1538.3 876 1447.7 876 1357.2 876C1266.7 876 1176.3 876 1085.8 876C995.3 876 904.7 876 814.2 876C723.7 876 633.3 876 542.8 876C452.3 876 361.7 876 271.2 876C180.7 876 90.3 876 45.2 876L0 876Z" fill="#157fc1"></path><path d="M0 671L45.2 668.8C90.3 666.7 180.7 662.3 271.2 658.5C361.7 654.7 452.3 651.3 542.8 656.8C633.3 662.3 723.7 676.7 814.2 674.8C904.7 673 995.3 655 1085.8 654.7C1176.3 654.3 1266.7 671.7 1357.2 687.7C1447.7 703.7 1538.3 718.3 1628.8 722.2C1719.3 726 1809.7 719 1854.8 715.5L1900 712L1900 876L1854.8 876C1809.7 876 1719.3 876 1628.8 876C1538.3 876 1447.7 876 1357.2 876C1266.7 876 1176.3 876 1085.8 876C995.3 876 904.7 876 814.2 876C723.7 876 633.3 876 542.8 876C452.3 876 361.7 876 271.2 876C180.7 876 90.3 876 45.2 876L0 876Z" fill="#188ad1"></path><path d="M0 739L45.2 738.8C90.3 738.7 180.7 738.3 271.2 735.7C361.7 733 452.3 728 542.8 729.7C633.3 731.3 723.7 739.7 814.2 745C904.7 750.3 995.3 752.7 1085.8 759.2C1176.3 765.7 1266.7 776.3 1357.2 767.8C1447.7 759.3 1538.3 731.7 1628.8 728.7C1719.3 725.7 1809.7 747.3 1854.8 758.2L1900 769L1900 876L1854.8 876C1809.7 876 1719.3 876 1628.8 876C1538.3 876 1447.7 876 1357.2 876C1266.7 876 1176.3 876 1085.8 876C995.3 876 904.7 876 814.2 876C723.7 876 633.3 876 542.8 876C452.3 876 361.7 876 271.2 876C180.7 876 90.3 876 45.2 876L0 876Z" fill="#1b95e1"></path><path d="M0 785L45.2 788.2C90.3 791.3 180.7 797.7 271.2 803.7C361.7 809.7 452.3 815.3 542.8 811.7C633.3 808 723.7 795 814.2 792.7C904.7 790.3 995.3 798.7 1085.8 805C1176.3 811.3 1266.7 815.7 1357.2 809C1447.7 802.3 1538.3 784.7 1628.8 784.5C1719.3 784.3 1809.7 801.7 1854.8 810.3L1900 819L1900 876L1854.8 876C1809.7 876 1719.3 876 1628.8 876C1538.3 876 1447.7 876 1357.2 876C1266.7 876 1176.3 876 1085.8 876C995.3 876 904.7 876 814.2 876C723.7 876 633.3 876 542.8 876C452.3 876 361.7 876 271.2 876C180.7 876 90.3 876 45.2 876L0 876Z" fill="#1da1f2"></path></svg>