<svg id="visual" viewBox="0 0 1900 875" width="1900" height="875" xmlns="http://www.w3.org/2000/svg" xmlns:xlink="http://www.w3.org/1999/xlink" version="1.1"><path d="M0 599L13.2 608.5C26.3 618 52.7 637 79 643C105.3 649 131.7 642 158.2 627.3C184.7 612.7 211.3 590.3 237.8 574C264.3 557.7 290.7 547.3 317 563C343.3 578.7 369.7 620.3 396 642.7C422.3 665 448.7 668 475 665.5C501.3 663 527.7 655 554 633.5C580.3 612 606.7 577 633.2 580.5C659.7 584 686.3 626 712.8 633.5C739.3 641 765.7 614 792 610.7C818.3 607.3 844.7 627.7 871 640.3C897.3 653 923.7 658 950 640.2C976.3 622.3 1002.7 581.7 1029 567.2C1055.3 552.7 1081.7 564.3 1108.2 580.8C1134.7 597.3 1161.3 618.7 1187.8 611.7C1214.3 604.7 1240.7 569.3 1267 571C1293.3 572.7 1319.7 611.3 1346 614.8C1372.3 618.3 1398.7 586.7 1425 580.8C1451.3 575 1477.7 595 1504 602.8C1530.3 610.7 1556.7 606.3 1583.2 609.2C1609.7 612 1636.3 622 1662.8 611.8C1689.3 601.7 1715.7 571.3 1742 559.8C1768.3 548.3 1794.7 555.7 1821 578.7C1847.3 601.7 1873.7 640.3 1886.8 659.7L1900 679L1900 876L1886.8 876C1873.7 876 1847.3 876 1821 876C1794.7 876 1768.3 876 1742 876C1715.7 876 1689.3 876 1662.8 876C1636.3 876 1609.7 876 1583.2 876C1556.7 876 1530.3 876 1504 876C1477.7 876 1451.3 876 1425 876C1398.7 876 1372.3 876 1346 876C1319.7 876 1293.3 876 1267 876C1240.7 876 1214.3 876 1187.8 876C1161.3 876 1134.7 876 1108.2 876C1081.7 876 1055.3 876 1029 876C1002.7 876 976.3 876 950 876C923.7 876 897.3 876 871 876C844.7 876 818.3 876 792 876C765.7 876 739.3 876 712.8 876C686.3 876 659.7 876 633.2 876C606.7 876 580.3 876 554 876C527.7 876 501.3 876 475 876C448.7 876 422.3 876 396 876C369.7 876 343.3 876 317 876C290.7 876 264.3 876 237.8 876C211.3 876 184.7 876 158.2 876C131.7 876 105.3 876 79 876C52.7 876 26.3 876 13.2 876L0 876Z" fill="#1DA1F2" stroke-linecap="round" stroke-linejoin="miter"></path></svg>